<?xml version="1.0" standalone="no"?>
<!DOCTYPE svg PUBLIC "-//W3C//DTD SVG 20010904//EN"
 "http://www.w3.org/TR/2001/REC-SVG-20010904/DTD/svg10.dtd">
<svg version="1.0" xmlns="http://www.w3.org/2000/svg"
 width="200.000000pt" height="200.000000pt" viewBox="0 0 200.000000 200.000000"
 preserveAspectRatio="xMidYMid meet">

<g transform="translate(0.000000,200.000000) scale(0.100000,-0.100000)"
fill="#000000" stroke="none">
<path d="M592 1153 l3 -448 33 -68 c43 -86 113 -156 199 -199 64 -31 74 -33
173 -33 100 0 109 2 175 34 38 19 91 56 118 83 52 52 102 148 111 213 4 22 3
33 0 25 -39 -89 -128 -150 -219 -150 -64 0 -145 38 -181 86 -50 64 -54 101
-54 445 l0 317 -167 67 c-93 37 -174 70 -181 72 -10 4 -12 -80 -10 -444z"/>
</g>
</svg>
